<svg id="visual" viewBox="0 0 900 600" width="900" height="600" xmlns="http://www.w3.org/2000/svg" xmlns:xlink="http://www.w3.org/1999/xlink" version="1.1"><path d="M0 127L13.7 125C27.3 123 54.7 119 82 109C109.3 99 136.7 83 163.8 79C191 75 218 83 245.2 83C272.3 83 299.7 75 327 86C354.3 97 381.7 127 409 139C436.3 151 463.7 145 491 139C518.3 133 545.7 127 573 124C600.3 121 627.7 121 654.8 116C682 111 709 101 736.2 89C763.3 77 790.7 63 818 62C845.3 61 872.7 73 886.3 79L900 85L900 0L886.3 0C872.7 0 845.3 0 818 0C790.7 0 763.3 0 736.2 0C709 0 682 0 654.8 0C627.7 0 600.3 0 573 0C545.7 0 518.3 0 491 0C463.7 0 436.3 0 409 0C381.7 0 354.3 0 327 0C299.7 0 272.3 0 245.2 0C218 0 191 0 163.8 0C136.7 0 109.3 0 82 0C54.7 0 27.3 0 13.7 0L0 0Z" fill="#649aff"></path><path d="M0 229L13.7 220C27.3 211 54.7 193 82 178C109.3 163 136.7 151 163.8 157C191 163 218 187 245.2 195C272.3 203 299.7 195 327 201C354.3 207 381.7 227 409 234C436.3 241 463.7 235 491 223C518.3 211 545.7 193 573 197C600.3 201 627.7 227 654.8 225C682 223 709 193 736.2 176C763.3 159 790.7 155 818 153C845.3 151 872.7 151 886.3 151L900 151L900 83L886.3 77C872.7 71 845.3 59 818 60C790.7 61 763.3 75 736.2 87C709 99 682 109 654.8 114C627.7 119 600.3 119 573 122C545.7 125 518.3 131 491 137C463.7 143 436.3 149 409 137C381.7 125 354.3 95 327 84C299.7 73 272.3 81 245.2 81C218 81 191 73 163.8 77C136.7 81 109.3 97 82 107C54.7 117 27.3 121 13.7 123L0 125Z" fill="#3f83ff"></path><path d="M0 331L13.7 320C27.3 309 54.7 287 82 271C109.3 255 136.7 245 163.8 250C191 255 218 275 245.2 275C272.3 275 299.7 255 327 257C354.3 259 381.7 283 409 295C436.3 307 463.7 307 491 300C518.3 293 545.7 279 573 278C600.3 277 627.7 289 654.8 286C682 283 709 265 736.2 257C763.3 249 790.7 251 818 244C845.3 237 872.7 221 886.3 213L900 205L900 149L886.3 149C872.7 149 845.3 149 818 151C790.7 153 763.3 157 736.2 174C709 191 682 221 654.8 223C627.7 225 600.3 199 573 195C545.7 191 518.3 209 491 221C463.7 233 436.3 239 409 232C381.7 225 354.3 205 327 199C299.7 193 272.3 201 245.2 193C218 185 191 161 163.8 155C136.7 149 109.3 161 82 176C54.7 191 27.3 209 13.7 218L0 227Z" fill="#076aff"></path><path d="M0 481L13.7 487C27.3 493 54.7 505 82 504C109.3 503 136.7 489 163.8 467C191 445 218 415 245.2 402C272.3 389 299.7 393 327 415C354.3 437 381.7 477 409 486C436.3 495 463.7 473 491 448C518.3 423 545.7 395 573 394C600.3 393 627.7 419 654.8 431C682 443 709 441 736.2 427C763.3 413 790.7 387 818 393C845.3 399 872.7 437 886.3 456L900 475L900 203L886.3 211C872.7 219 845.3 235 818 242C790.7 249 763.3 247 736.2 255C709 263 682 281 654.8 284C627.7 287 600.3 275 573 276C545.7 277 518.3 291 491 298C463.7 305 436.3 305 409 293C381.7 281 354.3 257 327 255C299.7 253 272.3 273 245.2 273C218 273 191 253 163.8 248C136.7 243 109.3 253 82 269C54.7 285 27.3 307 13.7 318L0 329Z" fill="#015cdd"></path><path d="M0 601L13.7 601C27.3 601 54.7 601 82 601C109.3 601 136.7 601 163.8 601C191 601 218 601 245.2 601C272.3 601 299.7 601 327 601C354.3 601 381.7 601 409 601C436.3 601 463.7 601 491 601C518.3 601 545.7 601 573 601C600.3 601 627.7 601 654.8 601C682 601 709 601 736.2 601C763.3 601 790.7 601 818 601C845.3 601 872.7 601 886.3 601L900 601L900 473L886.3 454C872.7 435 845.3 397 818 391C790.7 385 763.3 411 736.2 425C709 439 682 441 654.8 429C627.7 417 600.3 391 573 392C545.7 393 518.3 421 491 446C463.7 471 436.3 493 409 484C381.7 475 354.3 435 327 413C299.7 391 272.3 387 245.2 400C218 413 191 443 163.8 465C136.7 487 109.3 501 82 502C54.7 503 27.3 491 13.7 485L0 479Z" fill="#004ebc"></path></svg>